<?xml version="1.0" encoding="UTF-8"?>
<svg version="1.1" xmlns="http://www.w3.org/2000/svg" width="500" height="500">
<path d="M0 0 C0.74319992 -0.00095673 1.48639984 -0.00191345 2.25212097 -0.00289917 C3.83336471 -0.00358093 5.41461122 -0.00172692 6.99584961 0.00244141 C9.37034763 0.0077069 11.74464918 0.00254011 14.11914062 -0.00390625 C22.08814115 -0.0070454 29.95106008 0.21316245 37.89575195 0.91455078 C41.21891296 1.18222408 44.46076749 1.19904259 47.79296875 1.1328125 C53.3889379 1.02454708 53.3889379 1.02454708 55.60546875 2.1328125 C57.60322712 2.2896133 59.60401963 2.40868412 61.60546875 2.5078125 C66.85279068 2.86650485 71.36181314 3.78076063 76.33203125 5.4375 C79.74657639 6.48181106 83.05229915 6.78332041 86.60546875 7.1328125 C93.81170994 7.93350597 100.69502702 9.73313809 107.29296875 12.7578125 C110.77138497 14.20168338 113.88330255 14.68615256 117.60546875 15.1328125 C117.93546875 15.4628125 118.26546875 15.7928125 118.60546875 16.1328125 C119.71921875 16.2565625 120.83296875 16.3803125 121.98046875 16.5078125 C125.81686137 17.1692595 126.12471782 17.53930016 128.60546875 20.1328125 C129.38921875 20.1328125 130.17296875 20.1328125 130.98046875 20.1328125 C134.31949872 20.1328125 135.80853394 21.38472824 138.60546875 23.1328125 C139.47171875 23.2978125 140.33796875 23.4628125 141.23046875 23.6328125 C144.02558604 24.22125825 144.63777077 25.16511452 146.60546875 27.1328125 C148.27022561 27.47555656 149.93742198 27.80645552 151.60546875 28.1328125 C154.64998108 29.37108474 157.62945773 30.73882041 160.60546875 32.1328125 C160.60546875 32.7928125 160.60546875 33.4528125 160.60546875 34.1328125 C161.34796875 34.0709375 162.09046875 34.0090625 162.85546875 33.9453125 C166.1088186 34.16713181 167.14847967 35.0853216 169.60546875 37.1328125 C170.59546875 37.4628125 171.58546875 37.7928125 172.60546875 38.1328125 C172.93546875 38.7928125 173.26546875 39.4528125 173.60546875 40.1328125 C176.1328011 40.78836369 176.1328011 40.78836369 178.60546875 41.1328125 C178.93546875 42.1228125 179.26546875 43.1128125 179.60546875 44.1328125 C180.43046875 44.1740625 181.25546875 44.2153125 182.10546875 44.2578125 C186.15890435 45.2711714 188.23551799 46.93319953 191.44140625 49.5078125 C194.38857283 51.72084733 197.5494811 53.37158387 200.8203125 55.0546875 C202.60546875 56.1328125 202.60546875 56.1328125 203.60546875 58.1328125 C205.25985488 58.82939613 206.92801193 59.49378133 208.60546875 60.1328125 C209.59546875 60.7928125 210.58546875 61.4528125 211.60546875 62.1328125 C211.60546875 62.7928125 211.60546875 63.4528125 211.60546875 64.1328125 C212.92546875 64.1328125 214.24546875 64.1328125 215.60546875 64.1328125 C215.60546875 63.4728125 215.60546875 62.8128125 215.60546875 62.1328125 C217.25103441 61.09845694 218.92252955 60.10517737 220.60546875 59.1328125 C221.81203125 58.1428125 221.81203125 58.1428125 223.04296875 57.1328125 C225.76474311 55.0085008 228.5240777 53.67350803 231.60546875 52.1328125 C233.28803005 50.81959392 234.95544047 49.48668186 236.60546875 48.1328125 C239.05249824 46.54224333 241.31869475 45.24311019 244.04296875 44.1953125 C246.75582195 43.16987934 246.75582195 43.16987934 249.48046875 41.1953125 C251.83186416 39.64339153 253.74205466 38.56577056 256.29296875 37.5078125 C259.66311442 36.23400709 259.66311442 36.23400709 262.60546875 34.1328125 C265.29296875 34.0078125 265.29296875 34.0078125 267.60546875 34.1328125 C267.93546875 33.1428125 268.26546875 32.1528125 268.60546875 31.1328125 C269.34796875 31.0296875 270.09046875 30.9265625 270.85546875 30.8203125 C273.62808781 30.32298012 273.62808781 30.32298012 275.54296875 28.6328125 C278.16593462 26.72520096 280.42225737 26.49454107 283.60546875 26.1328125 C283.60546875 25.4728125 283.60546875 24.8128125 283.60546875 24.1328125 C284.63671875 23.8440625 285.66796875 23.5553125 286.73046875 23.2578125 C289.07784369 22.59185703 291.35966604 21.87115222 293.66796875 21.0703125 C296.60546875 20.1328125 296.60546875 20.1328125 299.91796875 19.6328125 C300.80484375 19.4678125 301.69171875 19.3028125 302.60546875 19.1328125 C302.93546875 18.4728125 303.26546875 17.8128125 303.60546875 17.1328125 C306.56154935 16.1846357 309.51946958 15.39661797 312.53515625 14.6640625 C314.85077378 14.0698663 317.13067139 13.39050681 319.41796875 12.6953125 C333.21960474 8.53452518 333.21960474 8.53452518 340.29296875 7.6953125 C346.13421345 6.98862127 351.99897282 6.07558762 357.54296875 4.0703125 C361.36091206 2.90155434 365.03749967 2.65080546 369.0078125 2.3515625 C371.69526663 2.16775375 371.69526663 2.16775375 374.66796875 1.5703125 C378.04776211 1.06693902 381.26978001 1.12129166 384.68041992 1.16503906 C387.59735377 1.13290191 390.43962875 0.91333894 393.34375 0.64453125 C400.88303678 0.04198552 408.38898325 -0.05330669 415.94775391 -0.05249023 C418.26222062 -0.05471806 420.57623951 -0.07307365 422.890625 -0.09179688 C424.37109214 -0.09472452 425.85156151 -0.09671351 427.33203125 -0.09765625 C428.01947418 -0.10484177 428.70691711 -0.11202728 429.41519165 -0.11943054 C433.04899742 -0.10192147 434.49015199 0.05593466 437.60546875 2.1328125 C437.97806424 4.72160017 437.97806424 4.72160017 437.97461224 8.07924843 C437.98058538 9.35466991 437.98655853 10.63009139 437.99271268 11.94416201 C437.98415241 13.37282065 437.97531559 14.80147765 437.9662323 16.23013306 C437.96753938 17.73741296 437.970164 19.2446922 437.9739998 20.75196779 C437.98073594 24.90910999 437.9686694 29.06602213 437.95366561 33.22313499 C437.94075435 37.70030608 437.94509122 42.17746337 437.94737244 46.65464783 C437.94894829 54.41672484 437.93950655 62.17872642 437.92265892 69.94078445 C437.89831567 81.16351462 437.89046845 92.38620816 437.88669495 103.60896187 C437.88012311 121.81550048 437.86014211 140.02199886 437.83178711 158.22851562 C437.80426547 175.91829222 437.78302262 193.60805789 437.77026367 211.29785156 C437.7694755 212.3875795 437.76868733 213.47730744 437.76787528 214.60005744 C437.76396027 220.06670211 437.76016912 225.53334686 437.75643957 230.99999166 C437.72532086 276.37762648 437.67246516 321.75521742 437.60546875 367.1328125 C428.90429946 367.15595419 420.20314072 367.17373693 411.5019474 367.18462467 C407.46189921 367.18984949 403.42187203 367.19693989 399.38183594 367.20825195 C395.48502775 367.21909504 391.5882398 367.22509237 387.69141769 367.22768974 C386.20262712 367.22954142 384.71383768 367.23315713 383.22505569 367.23854256 C381.1443159 367.24577184 379.06366043 367.24680264 376.98291016 367.24633789 C375.79710358 367.2485585 374.611297 367.25077911 373.38955688 367.25306702 C370.60546875 367.1328125 370.60546875 367.1328125 368.60546875 366.1328125 C368.60546875 352.6028125 368.60546875 339.0728125 368.60546875 325.1328125 C369.26546875 325.1328125 369.92546875 325.1328125 370.60546875 325.1328125 C370.93546875 323.8128125 371.26546875 322.4928125 371.60546875 321.1328125 C374.35553483 321.1057922 377.10533421 321.08596367 379.85546875 321.0703125 C380.63277344 321.06193359 381.41007812 321.05355469 382.2109375 321.04492188 C383.34208984 321.04008789 383.34208984 321.04008789 384.49609375 321.03515625 C385.5329834 321.02730103 385.5329834 321.02730103 386.59082031 321.01928711 C388.60546875 321.1328125 388.60546875 321.1328125 392.60546875 322.1328125 C392.60546875 231.3828125 392.60546875 140.6328125 392.60546875 47.1328125 C385.87443552 47.78267597 385.87443552 47.78267597 379.16796875 48.6328125 C376.17151773 49.05336703 373.24539553 49.29873297 370.23046875 49.5078125 C365.76253444 49.88572782 362.05529561 50.88226897 357.875 52.44140625 C354.54303756 53.45647914 351.23506983 53.64269054 347.76953125 53.82421875 C345.31369901 54.01555426 345.31369901 54.01555426 342.60546875 56.1328125 C340.5546875 56.44140625 340.5546875 56.44140625 338.29296875 56.5703125 C335.07447485 56.8510858 333.44884334 57.2111252 330.48046875 58.6953125 C326.99876143 60.43616616 324.44703999 60.36330677 320.60546875 60.1328125 C320.27546875 60.7928125 319.94546875 61.4528125 319.60546875 62.1328125 C317.42578125 63.16796875 317.42578125 63.16796875 314.73046875 64.1953125 C313.84617187 64.53691406 312.961875 64.87851563 312.05078125 65.23046875 C309.35118529 66.22664553 306.8239505 67.09639887 303.98046875 67.5703125 C303.19671875 67.7559375 302.41296875 67.9415625 301.60546875 68.1328125 C301.27546875 68.7928125 300.94546875 69.4528125 300.60546875 70.1328125 C298.62546875 70.1328125 296.64546875 70.1328125 294.60546875 70.1328125 C294.60546875 70.7928125 294.60546875 71.4528125 294.60546875 72.1328125 C291.95318063 73.20806444 289.32178421 74.22737401 286.60546875 75.1328125 C286.27546875 75.7928125 285.94546875 76.4528125 285.60546875 77.1328125 C283.95546875 77.1328125 282.30546875 77.1328125 280.60546875 77.1328125 C280.60546875 77.7928125 280.60546875 78.4528125 280.60546875 79.1328125 C274.85546875 81.1328125 274.85546875 81.1328125 272.60546875 81.1328125 C272.60546875 81.7928125 272.60546875 82.4528125 272.60546875 83.1328125 C270.60546875 84.1328125 268.60546875 85.1328125 266.60546875 86.1328125 C265.52265625 86.720625 265.52265625 86.720625 264.41796875 87.3203125 C262.60546875 88.1328125 262.60546875 88.1328125 259.60546875 88.1328125 C259.27546875 89.1228125 258.94546875 90.1128125 258.60546875 91.1328125 C256.64949691 92.52993524 254.65110474 93.87061157 252.60546875 95.1328125 C252.93546875 96.4528125 253.26546875 97.7728125 253.60546875 99.1328125 C254.26546875 99.1328125 254.92546875 99.1328125 255.60546875 99.1328125 C255.60546875 99.7928125 255.60546875 100.4528125 255.60546875 101.1328125 C256.16234375 101.3596875 256.71921875 101.5865625 257.29296875 101.8203125 C262.07485106 104.53435381 265.2214825 108.90282969 268.60546875 113.1328125 C269.51296875 113.9990625 270.42046875 114.8653125 271.35546875 115.7578125 C273.60546875 118.1328125 273.60546875 118.1328125 273.60546875 121.1328125 C274.59546875 121.1328125 275.58546875 121.1328125 276.60546875 121.1328125 C276.60546875 122.1228125 276.60546875 123.1128125 276.60546875 124.1328125 C277.59546875 124.4628125 278.58546875 124.7928125 279.60546875 125.1328125 C279.60546875 125.7928125 279.60546875 126.4528125 279.60546875 127.1328125 C280.81203125 128.3084375 280.81203125 128.3084375 282.04296875 129.5078125 C284.61959391 132.14728217 284.80575742 132.81972272 285.60546875 136.1328125 C286.93014621 136.816517 288.26410508 137.48245436 289.60546875 138.1328125 C290.73046875 140.1953125 290.73046875 140.1953125 291.60546875 142.1328125 C292.26546875 142.4628125 292.92546875 142.7928125 293.60546875 143.1328125 C296.00108569 146.62642053 297.38306117 150.08946436 298.60546875 154.1328125 C299.26546875 154.1328125 299.92546875 154.1328125 300.60546875 154.1328125 C302.6471636 157.03830132 303.60546875 158.53423296 303.60546875 162.1328125 C304.26546875 162.1328125 304.92546875 162.1328125 305.60546875 162.1328125 C305.60546875 162.7928125 305.60546875 163.4528125 305.60546875 164.1328125 C306.26546875 164.4628125 306.92546875 164.7928125 307.60546875 165.1328125 C309.88550282 168.41606156 311.04065261 171.17909951 311.60546875 175.1328125 C312.59546875 175.4628125 313.58546875 175.7928125 314.60546875 176.1328125 C314.60546875 177.4528125 314.60546875 178.7728125 314.60546875 180.1328125 C315.26546875 180.4628125 315.92546875 180.7928125 316.60546875 181.1328125 C317.31221504 182.44534132 317.96731531 183.78559967 318.60546875 185.1328125 C319.30852125 186.34422603 320.01724298 187.55236049 320.73046875 188.7578125 C322.60546875 192.1328125 322.60546875 192.1328125 322.60546875 194.1328125 C323.26546875 194.7928125 323.92546875 195.4528125 324.60546875 196.1328125 C325.27213542 197.79947917 325.93880208 199.46614583 326.60546875 201.1328125 C327.26546875 201.7928125 327.92546875 202.4528125 328.60546875 203.1328125 C328.73046875 206.2578125 328.73046875 206.2578125 328.60546875 209.1328125 C329.26546875 209.4628125 329.92546875 209.7928125 330.60546875 210.1328125 C332.75741245 213.36072805 332.80633318 214.41682059 332.60546875 218.1328125 C333.26546875 218.1328125 333.92546875 218.1328125 334.60546875 218.1328125 C335.60546875 223.8828125 335.60546875 223.8828125 335.60546875 226.1328125 C336.26546875 226.4628125 336.92546875 226.7928125 337.60546875 227.1328125 C338.27805542 229.46444628 338.94394319 231.7980164 339.60546875 234.1328125 C340.12109375 234.9165625 340.63671875 235.7003125 341.16796875 236.5078125 C342.94976323 239.76152416 343.09374489 242.48203387 343.296875 246.14453125 C343.44064139 248.36151308 343.44064139 248.36151308 345.60546875 250.1328125 C345.85995644 252.10509212 346.11092748 254.07959484 346.26171875 256.0625 C346.50631069 258.18268265 346.50631069 258.18268265 347.60546875 260.08984375 C348.7708719 262.47072596 348.93938932 264.30880154 349.10546875 266.9453125 C349.49919642 274.04717913 349.49919642 274.04717913 352.60546875 280.1328125 C352.92993212 283.23324023 353.11881316 286.334885 353.32421875 289.4453125 C353.31154674 292.04878002 353.31154674 292.04878002 354.60546875 293.1328125 C354.64152254 294.6089629 354.62207741 296.08656366 354.578125 297.5625 C354.52570521 302.92075537 355.16637162 307.98192096 356.04296875 313.2578125 C358.80683968 330.52869972 358.80683968 330.52869972 357.60546875 334.1328125 C357.53322634 336.46642292 357.52164657 338.80208775 357.54296875 341.13671875 C357.54675537 341.81580795 357.55054199 342.49489716 357.55444336 343.19456482 C357.56664951 345.36154543 357.58528229 347.52839241 357.60546875 349.6953125 C357.63200477 352.55077761 357.6520237 355.40617708 357.66796875 358.26171875 C357.67957031 359.53088135 357.69117188 360.80004395 357.703125 362.10766602 C357.60546875 365.1328125 357.60546875 365.1328125 356.60546875 367.1328125 C282.02546875 367.1328125 207.44546875 367.1328125 130.60546875 367.1328125 C129.61546875 364.8228125 128.62546875 362.5128125 127.60546875 360.1328125 C127.27546875 360.1328125 126.94546875 360.1328125 126.60546875 360.1328125 C126.60546875 349.9028125 126.60546875 339.6728125 126.60546875 329.1328125 C127.26546875 328.8028125 127.92546875 328.4728125 128.60546875 328.1328125 C129.59546875 325.8228125 130.58546875 323.5128125 131.60546875 321.1328125 C190.34546875 321.1328125 249.08546875 321.1328125 309.60546875 321.1328125 C309.27546875 316.8428125 308.94546875 312.5528125 308.60546875 308.1328125 C308.64671875 306.8540625 308.68796875 305.5753125 308.73046875 304.2578125 C308.84240841 296.75785558 307.00240596 288.34820663 304.0390625 281.52734375 C302.65887432 278.25926874 302.16878668 275.8914728 301.98046875 272.3828125 C301.72995711 266.71038816 301.72995711 266.71038816 298.60546875 262.1328125 C298.24276287 260.13793016 297.913778 258.13682261 297.60546875 256.1328125 C297.25484375 255.1428125 296.90421875 254.1528125 296.54296875 253.1328125 C295.55415724 249.96861567 295.44863183 247.42638777 295.60546875 244.1328125 C294.61546875 244.1328125 293.62546875 244.1328125 292.60546875 244.1328125 C292.48171875 243.2459375 292.35796875 242.3590625 292.23046875 241.4453125 C291.65452017 238.39278502 290.81392187 235.9762316 289.60546875 233.1328125 C289.27546875 232.0809375 288.94546875 231.0290625 288.60546875 229.9453125 C287.79932794 227.0404325 287.79932794 227.0404325 285.60546875 225.1328125 C283.55596117 220.62389582 282.14254232 215.83625762 280.60546875 211.1328125 C279.94546875 211.1328125 279.28546875 211.1328125 278.60546875 211.1328125 C276.60546875 206.1328125 276.60546875 206.1328125 275.73046875 203.6328125 C274.66196774 200.97463643 274.66196774 200.97463643 272.48046875 198.5078125 C270.60546875 196.1328125 270.60546875 196.1328125 270.60546875 193.1328125 C270.11046875 192.6378125 269.61546875 192.1428125 269.10546875 191.6328125 C268.61046875 191.1378125 268.11546875 190.6428125 267.60546875 190.1328125 C267.60546875 189.1428125 267.60546875 188.1528125 267.60546875 187.1328125 C266.61546875 186.8028125 265.62546875 186.4728125 264.60546875 186.1328125 C263.54296875 184.3203125 263.54296875 184.3203125 262.60546875 182.1328125 C261.57039608 179.85565262 260.79241392 178.31256747 258.98046875 176.5703125 C257.60546875 175.1328125 257.60546875 175.1328125 257.60546875 172.1328125 C256.61546875 171.8028125 255.62546875 171.4728125 254.60546875 171.1328125 C254.27546875 170.1428125 253.94546875 169.1528125 253.60546875 168.1328125 C252.83203125 167.3903125 252.83203125 167.3903125 252.04296875 166.6328125 C250.60546875 165.1328125 250.60546875 165.1328125 250.60546875 162.1328125 C249.61546875 162.1328125 248.62546875 162.1328125 247.60546875 162.1328125 C247.48171875 161.4934375 247.35796875 160.8540625 247.23046875 160.1953125 C247.02421875 159.5146875 246.81796875 158.8340625 246.60546875 158.1328125 C245.94546875 157.8028125 245.28546875 157.4728125 244.60546875 157.1328125 C242.00152635 154.72917336 239.8604351 152.56115597 238.04296875 149.5078125 C236.51245286 146.97913407 234.96744992 145.84321266 232.60546875 144.1328125 C232.60546875 143.4728125 232.60546875 142.8128125 232.60546875 142.1328125 C231.94546875 142.1328125 231.28546875 142.1328125 230.60546875 142.1328125 C229.26215221 140.13950408 227.92952863 138.13896384 226.60546875 136.1328125 C225.61546875 135.4728125 224.62546875 134.8128125 223.60546875 134.1328125 C223.60546875 133.4728125 223.60546875 132.8128125 223.60546875 132.1328125 C223.0228125 131.8646875 222.44015625 131.5965625 221.83984375 131.3203125 C219.57760274 130.11800259 217.79970557 128.79455337 215.85546875 127.1328125 C215.241875 126.6171875 214.62828125 126.1015625 213.99609375 125.5703125 C212.60546875 124.1328125 212.60546875 124.1328125 212.60546875 122.1328125 C211.61546875 121.8028125 210.62546875 121.4728125 209.60546875 121.1328125 C209.60546875 120.4728125 209.60546875 119.8128125 209.60546875 119.1328125 C208.28546875 118.8028125 206.96546875 118.4728125 205.60546875 118.1328125 C205.60546875 117.4728125 205.60546875 116.8128125 205.60546875 116.1328125 C204.28546875 115.8028125 202.96546875 115.4728125 201.60546875 115.1328125 C201.60546875 114.4728125 201.60546875 113.8128125 201.60546875 113.1328125 C200.80109375 112.7615625 200.80109375 112.7615625 199.98046875 112.3828125 C197.03529714 110.83272218 194.34726006 109.01779402 191.60546875 107.1328125 C190.82171875 106.5965625 190.03796875 106.0603125 189.23046875 105.5078125 C188.42609375 104.8271875 188.42609375 104.8271875 187.60546875 104.1328125 C187.60546875 103.4728125 187.60546875 102.8128125 187.60546875 102.1328125 C186.96609375 102.0296875 186.32671875 101.9265625 185.66796875 101.8203125 C184.98734375 101.5934375 184.30671875 101.3665625 183.60546875 101.1328125 C183.27546875 100.1428125 182.94546875 99.1528125 182.60546875 98.1328125 C181.86296875 98.0503125 181.12046875 97.9678125 180.35546875 97.8828125 C177.02773249 96.97524807 175.98120447 95.58054021 173.60546875 93.1328125 C171.63667552 92.07269307 169.64111008 91.05810401 167.60546875 90.1328125 C167.60546875 89.4728125 167.60546875 88.8128125 167.60546875 88.1328125 C164.63546875 87.6378125 164.63546875 87.6378125 161.60546875 87.1328125 C161.27546875 86.1428125 160.94546875 85.1528125 160.60546875 84.1328125 C158.95546875 83.8028125 157.30546875 83.4728125 155.60546875 83.1328125 C155.60546875 82.4728125 155.60546875 81.8128125 155.60546875 81.1328125 C154.92484375 81.2153125 154.24421875 81.2978125 153.54296875 81.3828125 C149.42103492 81.03200962 147.11195471 79.31609621 143.60546875 77.1328125 C142.94546875 76.8028125 142.28546875 76.4728125 141.60546875 76.1328125 C141.60546875 75.4728125 141.60546875 74.8128125 141.60546875 74.1328125 C140.49171875 74.0090625 139.37796875 73.8853125 138.23046875 73.7578125 C134.60546875 73.1328125 134.60546875 73.1328125 132.60546875 71.1328125 C131.42984375 70.8028125 130.25421875 70.4728125 129.04296875 70.1328125 C127.90859375 69.8028125 126.77421875 69.4728125 125.60546875 69.1328125 C125.27546875 68.4728125 124.94546875 67.8128125 124.60546875 67.1328125 C122.27389383 66.78739399 119.94038514 66.45486993 117.60546875 66.1328125 C116.12046875 65.1428125 116.12046875 65.1428125 114.60546875 64.1328125 C113.61546875 63.9884375 112.62546875 63.8440625 111.60546875 63.6953125 C108.60546875 63.1328125 108.60546875 63.1328125 107.10546875 61.5703125 C105.60578211 59.80127451 105.60578211 59.80127451 102.73046875 60.1328125 C99.60546875 60.1328125 99.60546875 60.1328125 97.35546875 58.6953125 C93.8244992 56.6890798 90.81916592 56.6396371 86.8125 56.44140625 C84.60546875 56.1328125 84.60546875 56.1328125 82.60546875 54.1328125 C80.4726774 53.74107531 78.32223789 53.44306525 76.16796875 53.1953125 C71.59226821 52.61167723 67.32535107 51.86442006 62.91796875 50.5078125 C58.08766171 49.07235721 53.73941523 48.91182327 48.72265625 49.125 C48.02398437 49.12757812 47.3253125 49.13015625 46.60546875 49.1328125 C46.27546875 48.8028125 45.94546875 48.4728125 45.60546875 48.1328125 C44.09077427 47.90088385 42.56792313 47.72066012 41.04296875 47.5703125 C40.21667969 47.48652344 39.39039063 47.40273437 38.5390625 47.31640625 C37.58193359 47.22552734 37.58193359 47.22552734 36.60546875 47.1328125 C36.60546875 47.70374459 36.60546875 48.27467667 36.60546875 48.86290973 C36.60546875 128.00365807 36.60546875 207.14440641 36.60546875 321.1328125 C48.15546875 321.1328125 59.70546875 321.1328125 71.60546875 321.1328125 C71.79109375 315.3475 71.79109375 315.3475 71.98046875 309.4453125 C72.27327568 301.31348055 72.70840636 293.39882562 74.203125 285.390625 C74.69318721 283.02279738 74.69318721 283.02279738 74.60546875 280.1328125 C75.26546875 280.1328125 75.92546875 280.1328125 76.60546875 280.1328125 C77.65050536 275.27288497 78.63010234 270.46026618 79.10546875 265.5078125 C79.39889863 262.49882246 79.90449824 259.68355964 80.66796875 256.7578125 C81.73066016 253.27278345 81.73066016 253.27278345 81.60546875 250.1328125 C82.26546875 249.8028125 82.92546875 249.4728125 83.60546875 249.1328125 C84.22275288 246.6524186 84.22275288 246.6524186 84.60546875 243.7578125 C85.15162307 240.0615181 85.49528825 238.29808325 87.60546875 235.1328125 C87.74984375 234.1634375 87.89421875 233.1940625 88.04296875 232.1953125 C88.6476126 228.90336264 89.60444604 227.71746683 91.60546875 225.1328125 C91.99718628 223.47889404 92.3260442 221.80935979 92.60546875 220.1328125 C93.47130666 217.1023798 94.16855479 214.6971597 96.10546875 212.1953125 C98.14951694 209.38474624 98.68508036 206.4692204 99.60546875 203.1328125 C100.55941711 201.11044198 101.55082226 199.1045429 102.60546875 197.1328125 C103.72331988 195.01496137 103.72331988 195.01496137 104.60546875 192.1328125 C105.58157446 190.34328537 106.62380405 188.60207391 107.66796875 186.8515625 C108.7546605 184.97967736 108.7546605 184.97967736 109.60546875 182.1328125 C110.26546875 182.1328125 110.92546875 182.1328125 111.60546875 182.1328125 C111.87359375 181.2459375 112.14171875 180.3590625 112.41796875 179.4453125 C113.53938545 176.31715013 114.86415183 173.94570906 116.60546875 171.1328125 C117.60540781 169.06493852 118.58496949 166.9899838 119.54296875 164.90234375 C120.60546875 163.1328125 120.60546875 163.1328125 123.60546875 161.1328125 C123.60546875 160.1428125 123.60546875 159.1528125 123.60546875 158.1328125 C124.26546875 158.1328125 124.92546875 158.1328125 125.60546875 158.1328125 C125.93546875 156.4828125 126.26546875 154.8328125 126.60546875 153.1328125 C127.59546875 153.1328125 128.58546875 153.1328125 129.60546875 153.1328125 C129.64671875 152.4521875 129.68796875 151.7715625 129.73046875 151.0703125 C130.81474293 147.43024918 132.6610712 145.5112349 135.23046875 142.78125 C136.82992746 141.0674918 136.82992746 141.0674918 137.60546875 138.1328125 C139.25090655 136.44518399 140.91835452 134.7787776 142.60546875 133.1328125 C143.26546875 132.1428125 143.92546875 131.1528125 144.60546875 130.1328125 C145.26546875 130.1328125 145.92546875 130.1328125 146.60546875 130.1328125 C146.93546875 128.8128125 147.26546875 127.4928125 147.60546875 126.1328125 C148.26546875 126.1328125 148.92546875 126.1328125 149.60546875 126.1328125 C149.66734375 125.5553125 149.72921875 124.9778125 149.79296875 124.3828125 C150.92315635 121.25306222 153.01564567 120.16767349 155.60546875 118.1328125 C156.62202956 116.47619489 157.62611951 114.81169691 158.60546875 113.1328125 C159.26546875 113.1328125 159.92546875 113.1328125 160.60546875 113.1328125 C160.93546875 112.1428125 161.26546875 111.1528125 161.60546875 110.1328125 C162.26546875 110.1328125 162.92546875 110.1328125 163.60546875 110.1328125 C163.93546875 108.8128125 164.26546875 107.4928125 164.60546875 106.1328125 C165.26546875 106.1328125 165.92546875 106.1328125 166.60546875 106.1328125 C166.60546875 105.4728125 166.60546875 104.8128125 166.60546875 104.1328125 C167.92546875 104.1328125 169.24546875 104.1328125 170.60546875 104.1328125 C170.60546875 104.7928125 170.60546875 105.4528125 170.60546875 106.1328125 C172.25546875 106.4628125 173.90546875 106.7928125 175.60546875 107.1328125 C175.93546875 108.1228125 176.26546875 109.1128125 176.60546875 110.1328125 C178.43831318 111.25797335 178.43831318 111.25797335 180.60546875 112.1328125 C181.93880208 112.79947917 183.27213542 113.46614583 184.60546875 114.1328125 C184.60546875 114.7928125 184.60546875 115.4528125 184.60546875 116.1328125 C185.24484375 116.2359375 185.88421875 116.3390625 186.54296875 116.4453125 C187.22359375 116.6721875 187.90421875 116.8990625 188.60546875 117.1328125 C188.93546875 118.1228125 189.26546875 119.1128125 189.60546875 120.1328125 C192.10994391 121.35151179 192.10994391 121.35151179 194.60546875 122.1328125 C194.60546875 122.7928125 194.60546875 123.4528125 194.60546875 124.1328125 C195.59546875 124.1328125 196.58546875 124.1328125 197.60546875 124.1328125 C199.29296875 125.4453125 199.29296875 125.4453125 200.60546875 127.1328125 C200.60546875 128.1228125 200.60546875 129.1128125 200.60546875 130.1328125 C201.59546875 130.4628125 202.58546875 130.7928125 203.60546875 131.1328125 C203.60546875 132.4528125 203.60546875 133.7728125 203.60546875 135.1328125 C202.94546875 135.1328125 202.28546875 135.1328125 201.60546875 135.1328125 C201.39921875 135.6896875 201.19296875 136.2465625 200.98046875 136.8203125 C199.4381794 139.41416277 197.54957817 140.85334425 195.1953125 142.6953125 C193.42519354 144.29581318 192.19475033 145.97414435 190.85546875 147.9453125 C189.74171875 149.523125 189.74171875 149.523125 188.60546875 151.1328125 C187.94546875 151.1328125 187.28546875 151.1328125 186.60546875 151.1328125 C186.27546875 152.4528125 185.94546875 153.7728125 185.60546875 155.1328125 C184.61546875 155.1328125 183.62546875 155.1328125 182.60546875 155.1328125 C182.93546875 156.1228125 183.26546875 157.1128125 183.60546875 158.1328125 C183.12335938 158.51953125 182.64125 158.90625 182.14453125 159.3046875 C181.51289063 159.82546875 180.88125 160.34625 180.23046875 160.8828125 C179.60398438 161.39328125 178.9775 161.90375 178.33203125 162.4296875 C176.50575846 164.23116926 175.62212185 165.79546051 174.60546875 168.1328125 C174.27546875 168.7928125 173.94546875 169.4528125 173.60546875 170.1328125 C172.94546875 170.1328125 172.28546875 170.1328125 171.60546875 170.1328125 C171.60546875 171.1228125 171.60546875 172.1128125 171.60546875 173.1328125 C170.94546875 173.7928125 170.28546875 174.4528125 169.60546875 175.1328125 C169.27546875 176.1228125 168.94546875 177.1128125 168.60546875 178.1328125 C167.46962212 179.26865913 166.31435505 180.38753698 165.10546875 181.4453125 C163.25865108 183.52298238 162.55693739 185.53213156 161.60546875 188.1328125 C160.43688934 190.68907997 159.61617606 192.12210519 157.60546875 194.1328125 C156.9206015 195.45688919 156.25676672 196.79190491 155.60546875 198.1328125 C154.61132282 199.80297766 153.61189625 201.47001923 152.60546875 203.1328125 C152.27546875 203.7928125 151.94546875 204.4528125 151.60546875 205.1328125 C150.94546875 206.1228125 150.28546875 207.1128125 149.60546875 208.1328125 C149.29609375 209.1228125 148.98671875 210.1128125 148.66796875 211.1328125 C147.60546875 214.1328125 147.60546875 214.1328125 146.1640625 215.48828125 C144.13758572 217.6264936 143.53045801 219.65878235 142.60546875 222.4453125 C141.1965728 226.52680879 139.61208575 230.30199823 137.60546875 234.1328125 C135.96279799 237.78319197 135.15871953 241.16784855 134.60546875 245.1328125 C133.61546875 245.1328125 132.62546875 245.1328125 131.60546875 245.1328125 C131.64027344 245.72449219 131.67507812 246.31617188 131.7109375 246.92578125 C131.88695251 252.06374324 131.51341945 254.77088645 128.60546875 259.1328125 C128.5638151 260.79895858 128.5638151 262.46666642 128.60546875 264.1328125 C127.60546875 266.9453125 127.60546875 266.9453125 126.60546875 269.1328125 C125.94546875 269.1328125 125.28546875 269.1328125 124.60546875 269.1328125 C124.64027344 269.761875 124.67507812 270.3909375 124.7109375 271.0390625 C124.88032392 276.39489963 124.40405649 280.2140477 122.2734375 285.10546875 C121.08501985 288.71242058 121.37104996 292.38211179 121.60546875 296.1328125 C120.94546875 296.4628125 120.28546875 296.7928125 119.60546875 297.1328125 C118.50552651 300.9413625 118.53058554 304.56708332 118.60546875 308.5078125 C118.64742836 313.18106452 118.30332087 317.50954222 117.60546875 322.1328125 C117.51810289 325.46813266 117.55298443 328.79714254 117.60546875 332.1328125 C117.60546875 339.79947917 117.60546875 347.46614583 117.60546875 355.1328125 C116.94546875 355.1328125 116.28546875 355.1328125 115.60546875 355.1328125 C116.59546875 356.6178125 116.59546875 356.6178125 117.60546875 358.1328125 C117.86307154 360.82733771 117.69446928 363.41829625 117.60546875 366.1328125 C115.10279913 367.38414731 113.42053099 367.25587368 110.61947632 367.25306702 C109.56495773 367.25444168 108.51043915 367.25581635 107.42396545 367.25723267 C106.26231369 367.25363739 105.10066193 367.25004211 103.90380859 367.24633789 C102.68432022 367.24648392 101.46483185 367.24662994 100.20838928 367.2467804 C96.85941694 367.24620205 93.51050582 367.24117796 90.16154432 367.23420644 C86.66349435 367.22796598 83.1654436 367.22736855 79.66738892 367.22618103 C73.04112014 367.22306976 66.41486781 367.21485912 59.78860629 367.20483154 C52.24577946 367.19366407 44.70295185 367.18815835 37.16011882 367.18313611 C21.64189259 367.17267634 6.12368279 367.15508084 -9.39453125 367.1328125 C-10.48140734 363.87218423 -10.51260689 361.52585945 -10.50196171 358.09456348 C-10.50046936 356.82411774 -10.49897701 355.553672 -10.49743944 354.24472791 C-10.49065669 352.82687323 -10.48378081 351.40901899 -10.4768219 349.99116516 C-10.47312939 348.49127446 -10.46987979 346.99138262 -10.46703666 345.49149007 C-10.45791511 341.35947448 -10.44248269 337.22750248 -10.42605388 333.09551036 C-10.40944677 328.64358878 -10.39864385 324.19165276 -10.387146 319.73971558 C-10.36641713 312.02296517 -10.341988 304.30623353 -10.31506538 296.58950233 C-10.27614483 285.43232166 -10.24277413 274.27512986 -10.21077012 263.11792745 C-10.15869797 245.01732579 -10.10212002 226.91674111 -10.04272461 208.81616211 C-9.98502758 191.23023134 -9.92944261 173.64429599 -9.87670898 156.05834961 C-9.87345927 154.97485839 -9.87020955 153.89136716 -9.86686135 152.77504287 C-9.85057198 147.33963701 -9.83432426 141.90423103 -9.81809723 136.46882498 C-9.68336455 91.35679987 -9.5413262 46.24479987 -9.39453125 1.1328125 C-6.38896741 -0.36996942 -3.29542926 -0.00933648 0 0 Z M340.60546875 240.1328125 C341.60546875 242.1328125 341.60546875 242.1328125 341.60546875 242.1328125 Z " fill="#FEFEFE" transform="translate(36.39453125,65.8671875)"/>
<path d="M0 0 C0.33 0 0.66 0 1 0 C1 117.81 1 235.62 1 357 C0.67 357 0.34 357 0 357 C0 239.19 0 121.38 0 0 Z " fill="#FFFFFF" transform="translate(475,69)"/>
<path d="M0 0 C0.33 0 0.66 0 1 0 C1 117.15 1 234.3 1 355 C0.67 355 0.34 355 0 355 C0 237.85 0 120.7 0 0 Z " fill="#FFFFFF" transform="translate(25,68)"/>
<path d="M0 0 C3.3 0 6.6 0 10 0 C10 0.33 10 0.66 10 1 C6.7 1 3.4 1 0 1 C0 0.67 0 0.34 0 0 Z " fill="#FFFFFF" transform="translate(414,66)"/>
<path d="M0 0 C2.97 0 5.94 0 9 0 C9 0.33 9 0.66 9 1 C6.03 1 3.06 1 0 1 C0 0.67 0 0.34 0 0 Z " fill="#FFFFFF" transform="translate(77,66)"/>
<path d="M0 0 C0.33 0 0.66 0 1 0 C1 1.98 1 3.96 1 6 C0.67 6 0.34 6 0 6 C0 4.02 0 2.04 0 0 Z " fill="#FFFFFF" transform="translate(107,373)"/>
<path d="M0 0 C0.33 0 0.66 0 1 0 C1 1.98 1 3.96 1 6 C0.67 6 0.34 6 0 6 C0 4.02 0 2.04 0 0 Z " fill="#FFFFFF" transform="translate(108,366)"/>
<path d="M0 0 C0.33 0 0.66 0 1 0 C1 1.65 1 3.3 1 5 C0.67 5 0.34 5 0 5 C0 3.35 0 1.7 0 0 Z " fill="#FFFFFF" transform="translate(392,370)"/>
<path d="M0 0 C1 4 1 4 1 4 Z " fill="#FFFFFF" transform="translate(391,364)"/>
<path d="M0 0 C1 4 1 4 1 4 Z " fill="#FFFFFF" transform="translate(343,361)"/>
<path d="M0 0 C4 1 4 1 4 1 Z " fill="#FFFFFF" transform="translate(89,115)"/>
<path d="" fill="#FFFFFF" transform="translate(0,0)"/>
<path d="" fill="#FFFFFF" transform="translate(0,0)"/>
<path d="" fill="#FFFFFF" transform="translate(0,0)"/>
<path d="" fill="#FFFFFF" transform="translate(0,0)"/>
<path d="" fill="#FFFFFF" transform="translate(0,0)"/>
<path d="M0 0 C3 1 3 1 3 1 Z " fill="#FFFFFF" transform="translate(408,115)"/>
<path d="M0 0 C3 1 3 1 3 1 Z " fill="#FFFFFF" transform="translate(374,73)"/>
<path d="M0 0 C3 1 3 1 3 1 Z " fill="#FFFFFF" transform="translate(378,72)"/>
<path d="M0 0 C3 1 3 1 3 1 Z " fill="#FFFFFF" transform="translate(120,72)"/>
<path d="" fill="#FFFFFF" transform="translate(0,0)"/>
<path d="" fill="#FFFFFF" transform="translate(0,0)"/>
<path d="" fill="#FFFFFF" transform="translate(0,0)"/>
<path d="" fill="#FFFFFF" transform="translate(0,0)"/>
<path d="" fill="#FFFFFF" transform="translate(0,0)"/>
<path d="" fill="#FFFFFF" transform="translate(0,0)"/>
<path d="" fill="#FFFFFF" transform="translate(0,0)"/>
<path d="M0 0 C2 1 2 1 2 1 Z " fill="#FFFFFF" transform="translate(125,122)"/>
<path d="M0 0 C2 1 2 1 2 1 Z " fill="#FFFFFF" transform="translate(351,79)"/>
<path d="" fill="#FFFFFF" transform="translate(0,0)"/>
<path d="" fill="#FFFFFF" transform="translate(0,0)"/>
<path d="" fill="#FFFFFF" transform="translate(0,0)"/>
<path d="" fill="#FFFFFF" transform="translate(0,0)"/>
<path d="" fill="#FFFFFF" transform="translate(0,0)"/>
<path d="" fill="#FFFFFF" transform="translate(0,0)"/>
<path d="" fill="#FFFFFF" transform="translate(0,0)"/>
<path d="" fill="#FFFFFF" transform="translate(0,0)"/>
<path d="" fill="#FFFFFF" transform="translate(0,0)"/>
<path d="" fill="#FFFFFF" transform="translate(0,0)"/>
<path d="" fill="#FFFFFF" transform="translate(0,0)"/>
<path d="" fill="#FFFFFF" transform="translate(0,0)"/>
<path d="" fill="#FFFFFF" transform="translate(0,0)"/>
<path d="" fill="#FFFFFF" transform="translate(0,0)"/>
<path d="" fill="#FFFFFF" transform="translate(0,0)"/>
<path d="" fill="#FFFFFF" transform="translate(0,0)"/>
<path d="" fill="#FFFFFF" transform="translate(0,0)"/>
<path d="" fill="#FFFFFF" transform="translate(0,0)"/>
<path d="" fill="#FFFFFF" transform="translate(0,0)"/>
<path d="" fill="#FFFFFF" transform="translate(0,0)"/>
<path d="" fill="#FFFFFF" transform="translate(0,0)"/>
<path d="" fill="#FFFFFF" transform="translate(0,0)"/>
<path d="" fill="#FFFFFF" transform="translate(0,0)"/>
<path d="" fill="#FFFFFF" transform="translate(0,0)"/>
<path d="" fill="#FFFFFF" transform="translate(0,0)"/>
<path d="" fill="#FFFFFF" transform="translate(0,0)"/>
<path d="" fill="#FFFFFF" transform="translate(0,0)"/>
<path d="" fill="#FFFFFF" transform="translate(0,0)"/>
<path d="" fill="#FFFFFF" transform="translate(0,0)"/>
<path d="" fill="#FFFFFF" transform="translate(0,0)"/>
<path d="" fill="#FFFFFF" transform="translate(0,0)"/>
<path d="" fill="#FFFFFF" transform="translate(0,0)"/>
<path d="" fill="#FFFFFF" transform="translate(0,0)"/>
<path d="" fill="#FFFFFF" transform="translate(0,0)"/>
<path d="" fill="#FFFFFF" transform="translate(0,0)"/>
<path d="" fill="#FFFFFF" transform="translate(0,0)"/>
<path d="" fill="#FFFFFF" transform="translate(0,0)"/>
<path d="" fill="#FFFFFF" transform="translate(0,0)"/>
<path d="" fill="#FFFFFF" transform="translate(0,0)"/>
</svg>
